<?xml version="1.0" encoding="utf-8"?>
<svg id="master-artboard" viewBox="0 0 1005.3228149414062 642.5224609375" version="1.1" xmlns="http://www.w3.org/2000/svg" x="0px" y="0px" width="1005.3228149414062px" height="642.5224609375px" enable-background="new 0 0 1400 980"><rect id="ee-background" x="0" y="0" width="1005.3228149414062" height="642.5224609375" style="fill: white; fill-opacity: 0; pointer-events: none;"/>
<path d="M 91.698997 846.377014 H 1308.285057 V 872.038013 H 91.698997 V 846.377014 Z" fill="#FFFFFF" transform="matrix(1, 0, 0, 1, -297.4378662109375, -250.24820518493652)" style="fill: rgb(35, 41, 70);"/><path d="M 91.698997 872.038025 H 1308.285057 V 884.072025 H 91.698997 V 872.038025 Z" fill="#DBDBDB" transform="matrix(1, 0, 0, 1, -297.4378662109375, -250.24820518493652)"/><path d="M 917.405029 475.459991 H 947.45203 V 532.97699 H 917.405029 V 475.459991 Z" fill="#FFFFFF" transform="matrix(1, 0, 0, 1, -297.4378662109375, -250.24820518493652)"/><path d="M 917.405029 475.459991 H 947.45203 V 480.440991 H 917.405029 V 475.459991 Z" fill="#DADBDC" transform="matrix(1, 0, 0, 1, -297.4378662109375, -250.24820518493652)"/><g transform="matrix(1, 0, 0, 1, -297.4378662109375, -250.24820518493652)">
			<path fill="#FFFFFF" d="M1086.565,795.985c0-16.755,13.631-30.38,30.378-30.38c16.749,0,30.381,13.625,30.381,30.38&#10;&#9;&#9;&#9;&#9;c0,16.752-13.632,30.376-30.381,30.376C1100.196,826.361,1086.565,812.737,1086.565,795.985z M1093.319,795.985&#10;&#9;&#9;&#9;&#9;c0,13.026,10.594,23.627,23.624,23.627c13.031,0,23.629-10.601,23.629-23.627c0-13.032-10.598-23.631-23.629-23.631&#10;&#9;&#9;&#9;&#9;C1103.913,772.354,1093.319,782.953,1093.319,795.985z" style="fill: rgb(35, 41, 70);"/>
		</g><path fill="#FFFFFF" d="M1252.894,774.666v-23.469h-121.368c-4.44,27.19,3.921,58.662,29.058,71.971&#10;&#9;&#9;&#9;c14.623,9.463,33.029,15.6,51.061,15.58C1235.972,827.66,1252.894,803.148,1252.894,774.666z" transform="matrix(1, 0, 0, 1, -298.86785888671875, -250.24820518493652)" style="fill: rgb(35, 41, 70);"/><path d="M 1195.005981 761.146973 H 1224.397982 V 793.440971 H 1195.005981 V 761.146973 Z" fill="#0085B1" transform="matrix(1, 0, 0, 1, -297.4378662109375, -250.24820518493652)"/><path d="M 1202.104004 765.221985 H 1218.188004 V 787.647985 H 1202.104004 V 765.221985 Z" fill="#FFF845" transform="matrix(1, 0, 0, 1, -297.4378662109375, -250.24820518493652)"/><path d="M 1209.525024 751.197021 H 1210.768024 V 761.147021 H 1209.525024 V 751.197021 Z" transform="matrix(1, 0, 0, 1, -297.4378662109375, -250.24820518493652)" style="stroke: rgb(255, 255, 255);"/><path fill="#EBEBEB" d="M1220.299,843.573c0,1.548-1.255,2.804-2.804,2.804h-70.797c-1.549,0-2.803-1.256-2.803-2.804l0,0&#10;&#9;&#9;&#9;c0-1.548,1.254-2.804,2.803-2.804h70.797C1219.044,840.77,1220.299,842.025,1220.299,843.573L1220.299,843.573z" transform="matrix(1, 0, 0, 1, -297.4378662109375, -250.24820518493652)"/><path fill="#414350" d="M1033.544,263.742H361.321c-11.945,0-21.626,9.684-21.626,21.627v432.667h715.477V285.369&#10;&#9;&#9;&#9;C1055.171,273.426,1045.489,263.742,1033.544,263.742z" transform="matrix(1, 0, 0, 1, -297.4378662109375, -250.24820518493652)" style="fill: rgb(35, 41, 70);"/><path fill="#343640" d="M355.914,718.036V285.369c0-2.981,2.425-5.407,5.407-5.407h672.223c2.982,0,5.407,2.426,5.407,5.407&#10;&#9;&#9;&#9;v432.667H355.914z" transform="matrix(1, 0, 0, 1, -297.4378662109375, -250.24820518493652)"/><path d="M 369.431 295.117004 H 1025.435028 V 690.402008 H 369.431 V 295.117004 Z" fill="#FFFFFF" transform="matrix(1, 0, 0, 1, -297.4378662109375, -250.24820518493652)"/><path d="M 589.6010131835938 861.31298828125 L 700.135986328125 861.31298828125 L 810.6710205078125 861.31298828125 L 820.2839965820312 854.4039916992188 L 579.9879760742188 854.4039916992188 Z" fill="#BDBDBD" transform="matrix(1, 0, 0, 1, -297.4378662109375, -250.24820518493652)"/><path fill="#E6E6E6" d="M616.784,836.982c0,0-1.352,12.317-16.972,14.419l-19.824,3.003h240.296l-19.824-3.003&#10;&#9;&#9;&#9;c-15.62-2.102-16.972-14.419-16.972-14.419l-2.519-23.635l-161.298-3.471L616.784,836.982z" transform="matrix(1, 0, 0, 1, -297.4378662109375, -250.24820518493652)" style="fill: rgb(204, 204, 204);"/><path d="M 619.6719970703125 809.8770141601562 L 780.969970703125 813.3480224609375 L 778.4949951171875 790.125 L 621.7760009765625 790.125 Z" fill="#CCCCCC" transform="matrix(1, 0, 0, 1, -297.4378662109375, -250.24820518493652)"/><path fill="#FFFFFF" d="M339.694,718.036v50.462c0,11.943,9.682,21.627,21.626,21.627h260.456h156.719h255.049&#10;&#9;&#9;&#9;c11.945,0,21.627-9.684,21.627-21.627v-50.462H339.694z" transform="matrix(1, 0, 0, 1, -297.4378662109375, -250.24820518493652)" style="stroke: rgb(35, 41, 70);"/><path fill="#343640" d="M736.181,754.76c0,4.313-3.498,7.811-7.81,7.811h-56.47c-4.313,0-7.81-3.497-7.81-7.811l0,0&#10;&#9;&#9;&#9;c0-4.313,3.497-7.809,7.81-7.809h56.47C732.683,746.951,736.181,750.447,736.181,754.76L736.181,754.76z" transform="matrix(1, 0, 0, 1, -297.4378662109375, -250.24820518493652)"/><path d="M 395.112 320.550995 H 1005.158997 V 381.188995 H 395.112 V 320.550995 Z" fill="#A5F0FF" transform="matrix(1, 0, 0, 1, -297.4378662109375, -250.24820518493652)" style="fill: rgb(184, 193, 236);"/><path d="M 806.708984 405.313995 H 1005.158981 V 436.774996 H 806.708984 V 405.313995 Z" fill="#A5F0FF" transform="matrix(1, 0, 0, 1, -297.4378662109375, -250.24820518493652)" style="fill: rgb(184, 193, 236);"/><path d="M 806.708984 436.774994 H 1005.158981 V 665.250992 H 806.708984 V 436.774994 Z" fill="#E6E6E6" transform="matrix(1, 0, 0, 1, -297.4378662109375, -250.24820518493652)"/><path d="M 572.049011 489.920013 H 787.335007 V 524.051014 H 572.049011 V 489.920013 Z" fill="#A5F0FF" transform="matrix(1, 0, 0, 1, -297.4378662109375, -250.24820518493652)" style="fill: rgb(184, 193, 236);"/><path d="M 572.049011 524.051025 H 787.335007 V 665.251022 H 572.049011 V 524.051025 Z" fill="#E6E6E6" transform="matrix(1, 0, 0, 1, -297.4378662109375, -250.24820518493652)"/><path d="M 395.112 405.313995 H 787.334991 V 436.774996 H 395.112 V 405.313995 Z" fill="#A5F0FF" transform="matrix(1, 0, 0, 1, -297.4378662109375, -250.24820518493652)" style="fill: rgb(184, 193, 236);"/><path d="M 787.3350219726562 436.7749938964844 L 787.3350219726562 480.39898681640625 L 563.8829956054688 480.39898681640625 L 563.8829956054688 665.2509765625 L 395.11199951171875 665.2509765625 L 395.11199951171875 436.7749938964844 Z" fill="#E6E6E6" transform="matrix(1, 0, 0, 1, -297.4378662109375, -250.24820518493652)"/><path fill="#63435D" d="M1150.7,592.076c0,0-0.17,0.609-0.488,1.754c-0.332,1.116-0.82,2.754-1.44,4.838&#10;&#9;&#9;c-0.62,2.061-1.358,4.541-2.11,7.338c-0.75,2.797-1.52,5.915-2.064,9.217c-0.586,3.291-0.84,6.775-0.656,10.146&#10;&#9;&#9;c0.238,3.376,0.954,6.599,2.379,9.598c1.372,3.012,3.446,5.881,6.073,8.67c0.64,0.697,1.367,1.378,2.063,2.066&#10;&#9;&#9;c0.758,0.662,1.463,1.355,2.268,2.01l1.18,0.993l1.236,0.97l1.362,1.073l1.438,1.115c2.044,1.65,4.033,3.296,5.989,5.133&#10;&#9;&#9;c1.958,1.853,3.875,3.783,5.667,5.979c1.782,2.186,3.478,4.514,4.877,7.121c0.743,1.247,1.316,2.661,1.925,3.99&#10;&#9;&#9;c0.519,1.414,1.059,2.784,1.395,4.248c0.809,2.859,1.082,5.828,1.089,8.643c-0.035,0.702-0.071,1.399-0.106,2.092l-0.082,1.278&#10;&#9;&#9;l-0.136,0.796c-0.091,0.531-0.181,1.06-0.271,1.585c-0.143,0.673-0.285,1.34-0.426,2.003l-0.223,0.98l-0.26,0.886&#10;&#9;&#9;c-0.179,0.577-0.357,1.152-0.533,1.722c-0.403,1.119-0.809,2.209-1.268,3.25c-0.957,2.067-1.944,4.004-3.092,5.741&#10;&#9;&#9;c-2.259,3.487-4.822,6.288-7.35,8.413c-2.514,2.143-5.029,3.563-7.139,4.49c-0.531,0.221-1.033,0.43-1.505,0.627&#10;&#9;&#9;c-0.472,0.186-0.951,0.297-1.37,0.431c-0.846,0.258-1.557,0.451-2.166,0.531c-1.193,0.202-1.812,0.272-1.812,0.272&#10;&#9;&#9;s0.456-0.436,1.312-1.25c0.432-0.373,0.91-0.914,1.465-1.515c0.565-0.583,1.152-1.315,1.783-2.121&#10;&#9;&#9;c1.24-1.634,2.61-3.637,3.787-6.094c1.195-2.433,2.277-5.249,3.043-8.35c0.395-1.546,0.706-3.161,0.92-4.82&#10;&#9;&#9;c0.079-0.835,0.174-1.671,0.235-2.514c0.016-0.42,0.031-0.845,0.047-1.271l0.027-0.63l-0.026-0.559&#10;&#9;&#9;c-0.014-0.371-0.031-0.74-0.027-1.108c-0.026-0.523-0.053-1.052-0.078-1.584l-0.039-0.805c-0.007,0.101,0.009-0.295-0.014,0.211&#10;&#9;&#9;l-0.008-0.035l-0.014-0.073l-0.027-0.146l-0.052-0.289c-0.061-0.386-0.121-0.771-0.183-1.16c-0.368-1.52-0.753-2.995-1.453-4.416&#10;&#9;&#9;c-0.269-0.727-0.744-1.413-1.087-2.132c-0.472-0.698-0.851-1.409-1.401-2.104c-0.975-1.411-2.219-2.804-3.549-4.207&#10;&#9;&#9;c-1.313-1.413-2.883-2.787-4.457-4.201c-1.617-1.388-3.354-2.823-5.082-4.192l-2.883-2.309c-1.065-0.849-2.099-1.748-3.115-2.693&#10;&#9;&#9;c-2.049-1.849-3.981-3.907-5.773-6.116c-3.576-4.403-6.527-9.646-8.02-15.243c-1.572-5.576-1.563-11.272-0.666-16.158&#10;&#9;&#9;c0.93-4.907,2.648-9.092,4.52-12.613c1.89-3.527,3.935-6.446,5.873-8.888c1.945-2.437,3.76-4.416,5.336-5.968&#10;&#9;&#9;c0.771-0.786,1.492-1.466,2.131-2.043c0.624-0.59,1.176-1.063,1.628-1.444C1150.212,592.479,1150.7,592.076,1150.7,592.076z" transform="matrix(1, 0, 0, 1, -297.4378662109375, -250.24820518493652)" style="fill: rgb(238, 187, 195);"/><path fill="#63435D" d="M1206.415,603.792c0,0-0.074,0.47-0.213,1.35c-0.137,0.869-0.439,2.142-0.732,3.702&#10;&#9;&#9;c-0.137,0.785-0.322,1.625-0.51,2.531c-0.17,0.907-0.354,1.889-0.549,2.936c-0.381,2.064-0.742,4.345-0.961,6.694&#10;&#9;&#9;c-0.105,1.177-0.152,2.353-0.172,3.536c0.08,1.166,0.045,2.34,0.264,3.436c0.32,2.229,0.886,4.225,1.94,6.021&#10;&#9;&#9;c1.042,1.807,2.312,3.565,4.106,5.347c0.389,0.454,0.96,0.876,1.42,1.325c0.5,0.437,0.922,0.907,1.511,1.33&#10;&#9;&#9;c0.55,0.437,1.108,0.861,1.644,1.316l0.402,0.339l0.551,0.427l1.042,0.805c1.519,1.23,2.989,2.447,4.448,3.835&#10;&#9;&#9;c1.466,1.399,2.898,2.87,4.258,4.564c2.698,3.321,5.121,7.444,6.214,12.049c0.598,2.264,0.778,4.614,0.732,6.826&#10;&#9;&#9;c-0.038,0.55-0.077,1.096-0.116,1.639l-0.088,1.052l-0.122,0.573c-0.082,0.384-0.163,0.766-0.244,1.146&#10;&#9;&#9;c-0.112,0.532-0.243,1.055-0.37,1.57l-0.195,0.767l-0.22,0.673c-0.152,0.438-0.304,0.874-0.454,1.306&#10;&#9;&#9;c-0.338,0.847-0.673,1.668-1.059,2.448c-0.794,1.549-1.6,2.991-2.533,4.271c-1.838,2.57-3.895,4.59-5.904,6.081&#10;&#9;&#9;c-1.999,1.501-3.975,2.445-5.617,3.018c-0.412,0.133-0.802,0.259-1.169,0.378c-0.366,0.11-0.735,0.164-1.059,0.234&#10;&#9;&#9;c-0.651,0.14-1.196,0.23-1.661,0.248c-0.91,0.063-1.376,0.061-1.376,0.061s0.305-0.361,0.876-1.038c0.287-0.31,0.6-0.748,0.96-1.23&#10;&#9;&#9;c0.366-0.47,0.74-1.049,1.136-1.679c0.774-1.276,1.603-2.803,2.266-4.62c0.678-1.8,1.254-3.833,1.599-6.017&#10;&#9;&#9;c0.18-1.089,0.311-2.211,0.361-3.352c0.009-0.561,0.018-1.131,0.026-1.711c-0.011-0.283-0.022-0.567-0.033-0.854l-0.013-0.419&#10;&#9;&#9;l-0.054-0.346c-0.032-0.228-0.067-0.452-0.083-0.674c-0.035-0.378-0.069-0.758-0.104-1.141l-0.053-0.583l-0.004-0.037&#10;&#9;&#9;c-0.023,0.513-0.011,0.129-0.018,0.237l-0.014-0.044l-0.025-0.09l-0.049-0.179l-0.172-0.707c-0.316-0.916-0.609-1.773-1.099-2.6&#10;&#9;&#9;c-0.185-0.42-0.518-0.821-0.741-1.244c-0.321-0.415-0.566-0.831-0.939-1.256c-0.643-0.851-1.478-1.727-2.375-2.631&#10;&#9;&#9;c-0.881-0.91-1.963-1.824-3.046-2.784c-1.12-0.939-2.338-1.945-3.542-2.895l-1.016-0.811l-0.475-0.383l-0.596-0.504&#10;&#9;&#9;c-0.797-0.669-1.568-1.366-2.346-2.05c-0.789-0.645-1.516-1.482-2.243-2.26c-0.716-0.816-1.476-1.513-2.123-2.432&#10;&#9;&#9;c-2.737-3.387-4.909-7.569-6.047-11.914c-0.249-1.104-0.507-2.191-0.653-3.279c-0.104-1.098-0.171-2.186-0.221-3.249&#10;&#9;&#9;c-0.033-1.061,0.098-2.094,0.172-3.109c0.051-1.024,0.259-1.98,0.473-2.917c0.346-1.907,0.996-3.577,1.604-5.181&#10;&#9;&#9;c0.32-0.792,0.715-1.508,1.061-2.23c0.365-0.71,0.675-1.432,1.106-2.046c1.562-2.57,3.201-4.658,4.77-6.368&#10;&#9;&#9;c1.558-1.708,3.042-3.077,4.31-4.14c0.618-0.548,1.192-0.982,1.709-1.356c0.505-0.381,0.951-0.694,1.313-0.947&#10;&#9;&#9;C1206.021,604.058,1206.415,603.792,1206.415,603.792z" transform="matrix(1, 0, 0, 1, -297.4378662109375, -250.24820518493652)" style="fill: rgb(238, 187, 195);"/>
<path fill="#EBEBEB" d="M1158.203,840.77h48.451c1.691-0.62,3.36-1.28,4.989-2.021c-18.031,0.02-36.438-6.117-51.061-15.58&#10;&#9;&#9;&#9;c-25.137-13.309-33.498-44.78-29.058-71.971h-19.444v23.469C1112.081,805.015,1131.284,830.878,1158.203,840.77z" transform="matrix(1, 0, 0, 1, -297.4378662109375, -250.24820518493652)" style="fill: rgb(35, 41, 70);"/><path d="M 1176.9013671875 785.084228515625" style="fill: rgb(35, 41, 70); fill-opacity: 1; stroke: rgb(0, 0, 0); stroke-opacity: 1; stroke-width: 0; paint-order: fill;" transform="matrix(1, 0, 0, 1, -298.86785888671875, -250.24820518493652)"/></svg>